#!OML:ASF H:\Male1\Project 1\Capture day 1\Session 1\Male1.ASF
:FULLY-SPECIFIED
:DEGREES
265
root 19.2121 15.3931 -0.553924 -172.875 -78.9979 172.855
lowerback 6.73664 2.33956 -1.59941
upperback 2.85298 2.89343 -1.73127
thorax -0.821775 1.4032 -1.09423
lowerneck -4.43631 4.91772 9.55474
upperneck -1.3537 6.1179 -7.02239
head 0.917715 2.96155 -3.84396
rclavicle 2.49475e-014 -1.55052e-014
rhumerus -38.9349 25.7308 -94.7036
rradius 57.4283
rwrist -36.2859
rhand -20.3717 -2.63509
rfingers 7.12502
rthumb 5.98094 -32.5307
lclavicle 2.49475e-014 -1.55052e-014
lhumerus -46.9563 21.4485 58.4366
lradius 30.753
lwrist 1.58624
lhand -21.6538 12.2756
lfingers 7.12502
lthumb 4.74302 42.2025
rfemur -2.8279 17.2768 19.1816
rtibia 23.9757
rfoot -26.1665 -27.7036
rtoes -30.3976
lfemur -11.4809 -16.2408 -20.0669
ltibia 28.5236
lfoot -19.5247 22.3362
ltoes -11.9587
266
root 19.2789 15.3956 -0.612718 -172.477 -79.4884 172.485
lowerback 6.97157 2.33357 -1.35426
upperback 2.91169 2.8935 -1.72193
thorax -0.87976 1.40395 -1.23019
lowerneck -4.56185 4.80573 9.34478
upperneck -1.42763 5.96297 -7.02384
head 0.894303 2.88115 -3.80766
rclavicle 3.0265e-014 -1.98785e-015
rhumerus -38.5914 26.1379 -94.71
rradius 57.5205
rwrist -36.4151
rhand -20.71 -2.70519
rfingers 7.12502
rthumb 5.65436 -32.6098
lclavicle 3.0265e-014 -1.98785e-015
lhumerus -46.0332 20.3543 60.2799
lradius 31.8059
lwrist 1.62847
lhand -20.238 10.9522
lfingers 7.12502
lthumb 6.11002 40.8441
rfemur -3.04247 16.9508 19.3883
rtibia 23.9039
rfoot -25.9074 -28.094
rtoes -30.6928
lfemur -12.1001 -15.6255 -19.6107
ltibia 28.8713
lfoot -19.0857 21.2794
ltoes -12.7214
267
root 19.3465 15.3982 -0.668607 -172.056 -80.0386 172.128
lowerback 7.19852 2.31047 -1.09942
upperback 2.96397 2.87329 -1.70345
thorax -0.940094 1.39474 -1.36048
lowerneck -4.69814 4.68994 9.14034
upperneck -1.51557 5.80147 -7.02955
head 0.868431 2.79705 -3.7741
rclavicle -7.5737e-014 1.51076e-014
rhumerus -38.3076 26.523 -94.6934
rradius 57.6585
rwrist -36.5392
rhand -20.9959 -2.77789
rfingers 7.12502
rthumb 5.37833 -32.6896
lclavicle -7.5737e-014 1.51076e-014
lhumerus -45.0752 19.09 62.2145
lradius 32.882
lwrist 1.43066
lhand -19.1515 9.41772
lfingers 7.12502
lthumb 7.15894 39.2766
rfemur -3.30778 16.6462 19.602
rtibia 23.8678
rfoot -25.6931 -28.5218
rtoes -30.9348
lfemur -12.8117 -14.8459 -19.1319
ltibia 29.2787
lfoot -18.72 19.9858
ltoes -13.7752
268
root 19.4133 15.4005 -0.720414 -171.581 -80.6169 171.741
lowerback 7.408 2.2785 -0.845731
upperback 3.01646 2.84318 -1.67459
thorax -0.991354 1.38058 -1.47789
lowerneck -4.83151 4.57085 8.95902
upperneck -1.63141 5.63401 -7.07271
head 0.835126 2.70933 -3.75872
rclavicle -6.95746e-016 -6.75868e-015
rhumerus -38.1105 26.922 -94.6617
rradius 57.8731
rwrist -36.6326
rhand -21.3235 -2.902
rfingers 7.12502
rthumb 5.06204 -32.8215
lclavicle -6.95746e-016 -6.75868e-015
lhumerus -44.1068 17.7107 64.1934
lradius 33.9744
lwrist 1.00203
lhand -18.4214 7.81456
lfingers 7.12502
lthumb 7.86363 37.6483
rfemur -3.60967 16.3485 19.8038
rtibia 23.8744
rfoot -25.5673 -28.9068
rtoes -31.0216
lfemur -13.58 -13.9559 -18.6666
ltibia 29.7523
lfoot -18.4813 18.5301
ltoes -15.1676
269
root 19.4786 15.4023 -0.767366 -171.135 -81.2032 171.389
lowerback 7.6015 2.24263 -0.59108
upperback 3.07644 2.80981 -1.62776
thorax -1.0271 1.36472 -1.57613
lowerneck -4.9582 4.44974 8.79725
upperneck -1.76903 5.46283 -7.15583
head 0.795726 2.61927 -3.76163
rclavicle -3.11098e-014 2.98177e-015
rhumerus -38.0243 27.3871 -94.6252
rradius 58.2003
rwrist -36.685
rhand -21.8003 -3.09202
rfingers 7.12502
rthumb 4.60165 -33.022
lclavicle -3.11098e-014 2.98177e-015
lhumerus -43.141 16.2696 66.1841
lradius 35.0739
lwrist 0.431425
lhand -18.0692 6.32591
lfingers 7.12502
lthumb 8.20358 36.1466
rfemur -3.92408 16.0455 20
rtibia 23.9229
rfoot -25.5872 -29.1804
rtoes -30.8113
lfemur -14.3606 -13.0181 -18.221
ltibia 30.2908
lfoot -18.3772 17.0072
ltoes -16.8353
270
root 19.5412 15.4037 -0.808929 -170.798 -81.7663 171.12
lowerback 7.78574 2.21597 -0.335569
upperback 3.15073 2.78993 -1.56488
thorax -1.04349 1.35547 -1.65865
lowerneck -5.07311 4.32391 8.64931
upperneck -1.91096 5.28547 -7.25755
head 0.753611 2.52618 -3.77422
rclavicle -4.52235e-015 -3.97569e-015
rhumerus -38.0809 27.9471 -94.6066
rradius 58.6741
rwrist -36.6803
rhand -22.5403 -3.32375
rfingers 7.12502
rthumb 3.88703 -33.268
lclavicle -4.52235e-015 -3.97569e-015
lhumerus -42.1856 14.7896 68.1566
lradius 36.166
lwrist -0.159791
lhand -18.049 5.16821
lfingers 7.12502
lthumb 8.22307 34.9882
rfemur -4.21695 15.7222 20.1903
rtibia 24.005
rfoot -25.7289 -29.3086
rtoes -30.3156
lfemur -15.0824 -12.0935 -17.8056
ltibia 30.8831
lfoot -18.3981 15.5589
ltoes -18.5912
271
root 19.6003 15.4056 -0.845085 -170.472 -82.2854 170.837
lowerback 7.9486 2.20421 -0.10004
upperback 3.2369 2.78921 -1.49922
thorax -1.03636 1.35564 -1.72749
lowerneck -5.17752 4.19316 8.51987
upperneck -2.04466 5.10167 -7.35703
head 0.712363 2.43023 -3.78996
rclavicle 1.77415e-014 6.95746e-015
rhumerus -38.2969 28.595 -94.6298
rradius 59.3141
rwrist -36.5813
rhand -23.598 -3.52269
rfingers 7.12502
rthumb 2.86557 -33.4832
lclavicle 1.77415e-014 6.95746e-015
lhumerus -41.2469 13.3054 70.0666
lradius 37.225
lwrist -0.689444
lhand -18.2165 4.42943
lfingers 7.12502
lthumb 8.06138 34.2557
rfemur -4.48778 15.3537 20.347
rtibia 24.1046
rfoot -25.8822 -29.3162
rtoes -29.7252
lfemur -15.7089 -11.2423 -17.4331
ltibia 31.5104
lfoot -18.52 14.3335
ltoes -20.1986
272
root 19.6559 15.4083 -0.876121 -170.054 -82.7471 170.415
lowerback 8.10315 2.20301 0.0888465
upperback 3.33871 2.79888 -1.43779
thorax -1.01011 1.36058 -1.77475
lowerneck -5.28645 4.06912 8.41106
upperneck -2.15402 4.92645 -7.44714
head 0.680933 2.33879 -3.80581
rclavicle -4.41053e-014 1.25234e-014
rhumerus -38.6537 29.3155 -94.6993
rradius 60.1053
rwrist -36.3622
rhand -24.928 -3.60998
rfingers 7.12502
rthumb 1.58108 -33.5839
lclavicle -4.41053e-014 1.25234e-014
lhumerus -40.336 11.8922 71.8637
lradius 38.211
lwrist -1.13633
lhand -18.422 3.99751
lfingers 7.12502
lthumb 7.86307 33.8313
rfemur -4.71356 14.9336 20.4578
rtibia 24.2086
rfoot -25.9547 -29.2505
rtoes -29.2493
lfemur -16.1909 -10.5085 -17.1095
ltibia 32.1426
lfoot -18.7034 13.4511
ltoes -21.3626
273
root 19.708 15.4121 -0.902416 -169.47 -83.1541 169.786
lowerback 8.25157 2.20128 0.218675
upperback 3.45103 2.80299 -1.38398
thorax -0.972161 1.36222 -1.79581
lowerneck -5.40009 3.95402 8.30232
upperneck -2.22831 4.76459 -7.50842
head 0.661923 2.25459 -3.81068
rclavicle -3.55328e-014 1.15295e-014
rhumerus -39.1137 30.0727 -94.8059
rradius 61.0045
rwrist -36.0387
rhand -26.3956 -3.53794
rfingers 7.12502
rthumb 0.16368 -33.5176
lclavicle -3.55328e-014 1.15295e-014
lhumerus -39.4649 10.6051 73.5097
lradius 39.0843
lwrist -1.50826
lhand -18.5518 3.71226
lfingers 7.12502
lthumb 7.7378 33.5507
rfemur -4.89212 14.492 20.5229
rtibia 24.3101
rfoot -25.9227 -29.1686
rtoes -28.9823
lfemur -16.5084 -9.92354 -16.8228
ltibia 32.7433
lfoot -18.8821 12.9753
ltoes -21.7924
274
root 19.7561 15.4171 -0.924125 -168.602 -83.5028 168.833
lowerback 8.39532 2.19428 0.284718
upperback 3.56447 2.7946 -1.34871
thorax -0.932952 1.35708 -1.79896
lowerneck -5.51897 3.86555 8.21606
upperneck -2.2727 4.63844 -7.55682
head 0.656921 2.18843 -3.81385
rclavicle 1.80397e-014 -3.27995e-015
rhumerus -39.6385 30.7976 -94.9358
rradius 61.962
rwrist -35.6621
rhand -27.7812 -3.3048
rfingers 7.12502
rthumb -1.17463 -33.2813
lclavicle 1.80397e-014 -3.27995e-015
lhumerus -38.6418 9.45155 74.9823
lradius 39.8195
lwrist -1.82309
lhand -18.5451 3.4334
lfingers 7.12502
lthumb 7.74425 33.2716
rfemur -5.02124 14.071 20.5358
rtibia 24.4056
rfoot -25.8184 -29.1019
rtoes -28.8891
lfemur -16.6439 -9.49549 -16.5714
ltibia 33.277
lfoot -18.9925 12.9103
ltoes -21.3774
275
root 19.8004 15.4232 -0.941218 -167.277 -83.8145 167.4
lowerback 8.53433 2.17065 0.289922
upperback 3.66388 2.75901 -1.34102
thorax -0.908023 1.3379 -1.79421
lowerneck -5.63321 3.80031 8.15739
upperneck -2.27034 4.54499 -7.59646
head 0.669623 2.13912 -3.81797
rclavicle 7.70291e-016 1.23246e-014
rhumerus -40.1905 31.4222 -95.0694
rradius 62.9324
rwrist -35.3118
rhand -28.8211 -2.97977
rfingers 7.12502
rthumb -2.17891 -32.9484
lclavicle 7.70291e-016 1.23246e-014
lhumerus -37.8839 8.40619 76.2803
lradius 40.4243
lwrist -2.07398
lhand -18.3958 3.07211
lfingers 7.12502
lthumb 7.88832 32.9049
rfemur -5.10804 13.7013 20.4888
rtibia 24.4907
rfoot -25.7031 -29.0735
rtoes -28.8712
lfemur -16.6092 -9.23181 -16.3583
ltibia 33.7129
lfoot -19.004 13.2144
ltoes -20.2509
276
root 19.8403 15.4301 -0.953267 -165.398 -84.0844 165.418
lowerback 8.63493 2.12809 0.239673
upperback 3.74333 2.69419 -1.36288
thorax -0.884662 1.30398 -1.78505
lowerneck -5.73816 3.76471 8.13417
upperneck -2.22749 4.49241 -7.63935
head 0.698472 2.11061 -3.82869
rclavicle -3.18055e-014 6.26172e-015
rhumerus -40.7222 31.9149 -95.178
rradius 63.879
rwrist -35.082
rhand -29.3215 -2.63742
rfingers 7.12502
rthumb -2.66221 -32.6005
lclavicle -3.18055e-014 6.26172e-015
lhumerus -37.1965 7.43639 77.4225
lradius 40.9252
lwrist -2.2316
lhand -18.1308 2.63219
lfingers 7.12502
lthumb 8.14407 32.4553
rfemur -5.17467 13.4093 20.3741
rtibia 24.5576
rfoot -25.6023 -29.0914
rtoes -28.8703
lfemur -16.4282 -9.1131 -16.1857
ltibia 34.0275
lfoot -18.9487 13.8037
ltoes -18.6038
277
root 19.8755 15.4376 -0.960143 -163.073 -84.3056 163.008
lowerback 8.67908 2.06811 0.145763
upperback 3.80735 2.60346 -1.40622
thorax -0.847923 1.25717 -1.76922
lowerneck -5.82775 3.75832 8.13607
upperneck -2.16441 4.48004 -7.68413
head 0.735418 2.10255 -3.8437
rclavicle -2.60905e-014 6.95746e-016
rhumerus -41.1943 32.2824 -95.2395
rradius 64.7804
rwrist -35.032
rhand -29.2436 -2.34025
rfingers 7.12502
rthumb -2.58697 -32.3043
lclavicle -2.60905e-014 6.95746e-016
lhumerus -36.5689 6.51866 78.4334
lradius 41.3427
lwrist -2.29945
lhand -17.8541 2.14535
lfingers 7.12502
lthumb 8.4111 31.9579
rfemur -5.22824 13.2152 20.2064
rtibia 24.5979
rfoot -25.5456 -29.1519
rtoes -28.8021
lfemur -16.1193 -9.10738 -16.0407
ltibia 34.208
lfoot -18.8802 14.5648
ltoes -16.6443
